<?xml version="1.0" standalone="no"?>
<!DOCTYPE svg PUBLIC "-//W3C//DTD SVG 20010904//EN"
 "http://www.w3.org/TR/2001/REC-SVG-20010904/DTD/svg10.dtd">
<svg version="1.0" xmlns="http://www.w3.org/2000/svg"
 width="4500.000000pt" height="4500.000000pt" viewBox="0 0 4500.000000 4500.000000"
 preserveAspectRatio="xMidYMid meet">

<g transform="translate(0.000000,4500.000000) scale(0.100000,-0.100000)"
fill="#000000" stroke="none">
<path d="M22155 41609 l-50 -6 60 -3 c33 -2 71 -4 85 -5 14 -1 72 -5 130 -9
58 -4 121 -9 140 -11 51 -5 166 -15 235 -21 53 -4 113 -10 295 -30 25 -3 61
-7 80 -9 19 -3 53 -7 75 -9 2853 -346 5595 -1410 7917 -3072 86 -62 171 -123
189 -136 161 -115 682 -521 825 -643 279 -238 488 -419 544 -471 36 -33 130
-121 210 -194 283 -262 882 -873 1112 -1135 611 -697 1016 -1220 1478 -1910
554 -827 1019 -1670 1425 -2580 126 -282 248 -575 242 -581 -3 -3 -88 65 -191
150 -491 409 -752 557 -1116 633 -105 21 -387 24 -500 4 -282 -50 -705 -236
-954 -420 -298 -220 -510 -477 -671 -813 -145 -304 -201 -629 -164 -966 52
-487 244 -721 711 -870 100 -32 291 -77 373 -87 28 -3 64 -8 80 -10 17 -2 52
-7 80 -10 129 -16 141 -21 233 -112 100 -100 195 -172 307 -236 182 -105 446
-185 700 -212 33 -4 71 -8 85 -10 14 -2 66 -7 115 -10 50 -3 115 -8 145 -10
30 -2 96 -7 145 -10 50 -4 101 -8 115 -10 14 -2 57 -6 95 -10 128 -11 127 -11
120 -58 -14 -105 -25 -322 -35 -672 -19 -701 -41 -932 -120 -1252 -114 -468
-282 -798 -540 -1066 -123 -128 -191 -185 -282 -236 -44 -25 -61 -30 -75 -22
-10 5 -56 52 -101 104 -456 526 -1073 822 -1777 852 -256 11 -330 16 -337 23
-4 4 -53 109 -108 232 -310 691 -623 1162 -1075 1616 -452 454 -883 734 -1360
883 -54 17 -102 31 -106 31 -6 0 75 -238 83 -245 2 -1 57 -24 123 -50 143 -57
301 -135 422 -211 84 -53 310 -214 363 -260 155 -132 215 -187 335 -308 208
-209 384 -427 552 -681 197 -297 308 -507 522 -987 55 -122 102 -188 153 -214
41 -21 130 -33 263 -34 595 -7 1065 -164 1479 -492 46 -37 164 -150 261 -252
197 -204 234 -231 322 -229 109 3 278 109 458 287 298 295 491 654 620 1151
90 350 117 601 135 1265 6 212 15 448 20 525 25 338 25 337 1 382 -22 44 -67
84 -115 103 -35 13 -275 40 -486 54 -41 3 -111 8 -155 11 -296 20 -512 61
-690 132 -171 67 -282 141 -430 283 -110 107 -133 121 -220 143 -57 14 -88 19
-200 32 -164 20 -349 62 -488 112 -353 127 -468 291 -508 724 -53 577 272
1204 812 1566 202 136 488 265 716 322 365 92 722 13 1108 -244 171 -114 594
-460 850 -695 92 -84 89 -79 194 -385 533 -1548 823 -3013 927 -4670 21 -343
30 -1291 15 -1655 -67 -1629 -331 -3128 -821 -4660 -113 -354 -91 -316 -196
-324 -49 -4 -107 -9 -129 -11 -292 -29 -1158 -24 -1650 10 -33 2 -103 7 -155
10 -155 9 -219 14 -445 31 -85 7 -135 7 -141 1 -4 -4 -8 -196 -3 -201 2 -2 47
-7 99 -11 52 -4 111 -8 130 -10 19 -2 85 -7 145 -10 61 -4 130 -9 155 -10 25
-2 106 -6 180 -10 74 -3 203 -10 285 -17 83 -6 366 -11 630 -12 432 -1 608 3
833 20 48 3 72 2 72 -6 0 -15 -137 -376 -226 -597 -497 -1230 -1127 -2387
-1897 -3483 -159 -227 -476 -650 -486 -650 -4 0 -13 57 -20 127 -6 71 -32 278
-56 461 -61 461 -83 664 -95 898 -17 323 3 1999 50 4224 24 1136 25 1337 5
1499 -40 322 -137 635 -292 945 -234 468 -899 1516 -1498 2361 -82 116 -160
226 -174 246 -74 104 -587 807 -653 894 -21 28 -47 61 -57 75 -10 14 -177 236
-370 495 -430 574 -454 617 -516 916 -259 1235 -751 2338 -1370 3075 -87 103
-355 352 -480 445 -291 217 -638 387 -995 488 -135 38 -217 55 -520 111 -160
30 -412 94 -514 131 -211 76 -257 160 -203 369 14 52 74 232 135 400 223 618
255 753 273 1150 13 284 6 1640 -11 2065 -28 740 -62 1357 -86 1585 -85 816
-381 1496 -896 2060 -216 235 -628 587 -948 809 -566 393 -1082 646 -1644 807
-185 53 -457 113 -606 134 -41 6 -86 12 -100 15 -14 2 -47 6 -75 9 -27 3 -75
8 -105 11 -30 4 -73 8 -95 11 -22 2 -137 6 -255 9 -194 5 -222 4 -283 -14
-194 -56 -291 -190 -352 -484 -16 -77 -17 -79 -43 -73 -15 3 -79 15 -142 27
-340 63 -625 -47 -866 -333 -79 -95 -238 -314 -424 -587 -503 -736 -820 -1575
-954 -2526 -57 -400 -76 -699 -76 -1195 0 -454 15 -915 86 -2615 14 -341 27
-741 27 -890 2 -255 1 -272 -18 -305 -12 -19 -36 -43 -55 -53 -48 -25 -132
-18 -465 37 -268 45 -548 86 -720 106 -49 6 -101 13 -115 15 -36 5 -221 26
-360 40 -123 12 -176 17 -191 20 -9 2 -56 6 -105 10 -49 4 -115 10 -146 14
-92 12 -336 4 -432 -14 -262 -49 -466 -153 -642 -329 -50 -50 -172 -192 -271
-316 -99 -124 -237 -297 -307 -385 -637 -797 -816 -1068 -1436 -2180 -301
-539 -503 -890 -631 -1092 -255 -403 -1144 -1740 -1669 -2511 -604 -886 -978
-1432 -1135 -1655 -205 -294 -283 -450 -325 -657 -19 -91 -21 -127 -17 -270 3
-99 12 -195 22 -240 46 -207 157 -468 322 -755 207 -360 374 -668 648 -1195
331 -635 553 -1003 855 -1415 196 -268 467 -625 489 -645 3 -3 22 -25 41 -50
190 -249 679 -812 1089 -1255 460 -496 1346 -1404 1481 -1517 279 -234 616
-384 983 -438 43 -6 88 -13 100 -15 56 -9 188 -26 247 -31 36 -3 76 -8 90 -11
62 -13 549 -11 665 3 294 35 533 104 795 230 156 74 161 76 252 81 126 7 392
-28 465 -62 95 -43 109 -128 38 -231 -21 -30 -184 -197 -363 -372 -203 -199
-370 -371 -445 -461 l-121 -144 34 -29 c42 -34 49 -34 176 -4 260 64 440 163
861 477 209 156 413 299 426 299 4 0 7 -283 7 -630 0 -359 4 -630 9 -630 19 0
133 84 193 143 162 156 231 328 286 710 16 110 31 186 37 184 5 -2 36 -54 67
-117 46 -93 111 -280 338 -970 273 -828 481 -1470 631 -1945 71 -223 73 -234
77 -350 3 -96 0 -137 -16 -205 -22 -89 -181 -488 -692 -1730 -361 -878 -781
-1922 -775 -1928 5 -5 27 -8 130 -17 39 -3 88 -8 110 -10 72 -7 159 -15 240
-20 44 -3 105 -8 135 -10 133 -11 309 -21 620 -35 193 -8 1202 -6 1595 4 310
7 642 20 800 31 33 2 103 7 155 10 52 3 118 8 145 10 136 10 213 17 245 20 19
2 64 6 100 10 36 3 76 8 90 10 14 2 59 7 100 10 41 4 86 8 100 10 14 2 50 6
80 10 100 11 365 45 387 49 13 3 89 14 170 26 320 45 758 127 1143 211 2631
580 5081 1769 7190 3489 112 91 221 181 243 200 608 523 1114 1012 1633 1579
66 73 347 393 400 457 23 27 66 78 96 114 138 165 364 452 540 687 912 1215
1658 2541 2218 3943 1060 2651 1444 5533 1119 8400 -274 2422 -1066 4766
-2322 6870 -317 533 -628 995 -1012 1508 -220 293 -292 385 -503 642 -163 198
-167 202 -363 424 -493 560 -1037 1102 -1602 1598 -2103 1846 -4666 3168
-7378 3807 -544 128 -1198 248 -1692 311 -89 12 -175 23 -192 25 -48 7 -216
26 -260 31 -22 2 -60 6 -85 9 -25 2 -74 7 -110 10 -36 3 -85 7 -110 10 -71 7
-158 14 -245 20 -44 3 -100 8 -125 10 -25 2 -108 7 -185 11 -77 3 -142 8 -145
9 -20 12 -1048 24 -1135 14z m-6220 -15671 c-3 -18 -17 -143 -30 -278 -24
-229 -40 -352 -80 -610 -43 -273 17 -573 156 -777 156 -230 302 -344 889 -698
162 -98 351 -215 420 -260 207 -137 308 -262 324 -403 13 -111 87 -548 122
-716 176 -860 458 -1636 844 -2326 173 -308 223 -403 297 -564 318 -687 464
-1330 465 -2041 0 -265 -9 -347 -45 -424 -51 -108 -141 -161 -367 -215 -217
-52 -372 -102 -793 -258 -476 -175 -565 -199 -747 -204 -148 -4 -226 7 -354
50 -288 97 -755 434 -1157 835 -140 141 -213 221 -372 411 -52 61 -210 277
-284 386 -377 558 -673 1197 -1026 2209 -288 827 -381 1147 -491 1695 -154
767 -168 843 -162 910 11 135 -19 89 670 1034 204 280 409 561 455 625 46 64
122 168 169 231 47 63 105 142 129 175 24 33 213 290 419 570 206 281 389 530
406 555 28 42 120 120 140 120 5 0 6 -15 3 -32z m12107 -417 c247 -202 266
-222 848 -841 1100 -1173 1300 -1376 2200 -2235 443 -423 604 -594 656 -698
34 -66 150 -475 511 -1792 162 -594 335 -1226 385 -1405 393 -1437 569 -2435
609 -3456 17 -435 1 -575 -83 -738 -36 -69 -68 -107 -218 -261 -215 -221 -241
-252 -334 -390 -157 -233 -247 -458 -285 -712 -15 -102 -14 -371 3 -483 23
-152 35 -278 51 -540 18 -291 29 -398 56 -544 24 -129 42 -98 -166 -276 -1166
-991 -2535 -1866 -3920 -2505 -287 -133 -325 -149 -331 -142 -9 8 33 234 61
332 51 177 145 359 263 515 31 41 128 145 215 230 267 261 662 749 844 1042
324 521 528 1197 583 1928 69 927 -203 1814 -774 2525 -136 170 -176 214 -346
385 -223 224 -351 332 -720 611 -480 363 -783 574 -1255 874 -585 372 -923
611 -1245 881 -548 459 -775 759 -856 1134 -25 116 -26 370 -1 487 42 199 83
305 265 690 95 199 231 531 302 738 106 306 257 885 535 2050 65 270 131 537
147 595 34 122 112 290 159 340 18 19 55 60 83 90 73 81 407 430 767 800 174
179 437 450 585 602 148 152 270 277 271 278 2 0 62 -49 135 -109z"/>
<path d="M14816 24156 c-42 -57 -76 -113 -76 -124 0 -60 123 -424 223 -657
104 -246 151 -407 189 -650 28 -183 31 -586 6 -865 -57 -620 -14 -1264 133
-1995 125 -621 366 -1447 719 -2465 l92 -265 72 -70 c102 -98 245 -219 253
-212 3 4 -31 109 -77 234 -421 1164 -720 2163 -859 2873 -47 238 -93 551 -118
800 -25 248 -25 900 0 1157 19 207 23 543 6 709 -26 265 -90 522 -190 763
-140 337 -216 562 -266 789 -10 45 -21 82 -24 82 -3 0 -41 -47 -83 -104z"/>
<path d="M29548 20466 c-58 -21 -92 -44 -285 -194 -100 -78 -278 -213 -395
-301 -193 -144 -321 -236 -1005 -727 -392 -281 -601 -413 -907 -571 -110 -57
-212 -115 -228 -130 -46 -44 -51 -77 -43 -282 4 -102 9 -355 11 -561 l4 -374
97 -63 98 -63 7 52 c14 114 19 501 9 698 -6 113 -14 259 -17 325 l-7 121 126
63 c348 175 598 336 1242 801 623 450 752 544 971 712 124 95 259 199 300 231
42 31 86 57 99 57 13 0 160 -73 327 -161 857 -456 1238 -640 1753 -847 236
-95 566 -215 572 -208 3 2 -10 58 -28 124 l-33 119 -195 73 c-550 205 -1016
424 -1878 881 -465 247 -499 259 -595 225z"/>
<path d="M16430 41171 c-619 -129 -1092 -283 -2195 -716 -453 -178 -843 -325
-1085 -410 -729 -256 -1296 -592 -2460 -1458 -1093 -814 -2135 -1718 -2620
-2272 -67 -77 -150 -171 -184 -210 -35 -38 -77 -87 -95 -107 l-32 -37 3 -248
3 -248 121 -240 c142 -281 276 -518 457 -810 163 -262 578 -883 662 -990 86
-110 177 -193 308 -280 262 -173 384 -352 567 -830 284 -743 589 -1298 997
-1815 326 -414 772 -767 1257 -995 383 -180 810 -304 1351 -390 88 -15 171
-28 185 -31 14 -2 79 -12 145 -21 66 -9 122 -18 123 -19 2 -1 -15 -114 -37
-251 -48 -295 -103 -675 -97 -680 4 -4 47 68 188 322 l95 170 41 251 c62 382
70 371 -298 420 -52 7 -404 66 -534 89 -447 81 -890 232 -1236 420 -558 305
-964 705 -1368 1349 -231 369 -410 738 -617 1271 -131 339 -220 509 -343 657
-82 101 -153 163 -282 250 -58 39 -122 85 -143 102 -72 59 -196 226 -453 612
-384 576 -558 867 -759 1266 l-115 227 0 184 0 183 166 189 c284 326 635 667
1134 1105 41 36 93 81 115 101 22 20 137 117 255 215 809 675 1896 1475 2482
1828 408 245 696 381 1137 535 253 90 450 163 751 281 129 51 350 137 490 192
889 348 1449 527 1986 633 l174 35 626 0 c576 0 634 -2 737 -20 62 -10 132
-22 157 -25 194 -27 542 -92 800 -151 338 -77 800 -211 956 -277 260 -110 418
-309 453 -572 5 -38 15 -158 21 -265 18 -287 8 -277 119 -119 l93 133 -7 121
c-9 162 -29 270 -69 375 -45 121 -87 188 -180 287 -169 180 -330 254 -876 408
-390 110 -1006 240 -1280 271 -30 3 -100 14 -155 25 -92 17 -152 19 -775 18
l-675 0 -185 -38z"/>
<path d="M16420 39092 c-91 -31 -170 -76 -379 -216 -564 -378 -1074 -807
-1731 -1456 -465 -460 -721 -805 -910 -1230 -136 -306 -108 -348 273 -411 221
-37 316 -58 482 -110 608 -191 1102 -595 1455 -1189 131 -222 212 -260 442
-210 175 38 293 49 488 45 161 -3 215 -9 415 -44 885 -155 1563 -401 2193
-793 79 -50 145 -88 146 -86 1 1 0 60 -2 129 l-4 126 -101 60 c-627 375 -1343
629 -2177 772 -269 46 -324 52 -490 53 -202 1 -331 -13 -519 -53 -70 -16 -100
-18 -117 -10 -12 5 -46 49 -74 97 -47 79 -135 215 -193 297 -118 168 -402 460
-567 583 -390 292 -787 455 -1315 539 -88 14 -163 29 -167 33 -4 4 16 59 45
122 184 398 423 708 929 1206 600 589 1106 1010 1654 1375 318 212 368 220
533 82 303 -255 623 -374 1006 -374 199 0 205 -2 394 -194 235 -238 430 -383
692 -515 215 -107 473 -180 641 -180 l45 0 31 104 c18 57 32 106 32 108 0 1
-34 2 -76 2 -272 -4 -649 156 -979 416 -44 34 -152 135 -240 224 -224 226
-269 248 -509 248 -334 0 -595 86 -831 273 -224 177 -240 186 -370 191 -69 3
-103 0 -145 -14z"/>
<path d="M27789 37936 c-2 -3 -38 -6 -79 -7 -79 -2 -319 -31 -408 -50 -44 -9
-52 -14 -47 -27 4 -10 21 -55 38 -101 l30 -83 36 5 c20 3 86 13 146 23 172 29
563 26 750 -5 454 -74 807 -218 1248 -508 399 -263 742 -565 1092 -963 128
-146 344 -448 475 -665 319 -528 575 -1176 714 -1807 61 -273 58 -344 -25
-630 -136 -473 -272 -797 -437 -1043 -93 -139 -124 -178 -245 -311 -136 -150
-204 -281 -227 -440 -13 -96 -12 -176 5 -339 36 -338 28 -813 -15 -929 -25
-65 -67 -112 -126 -138 -44 -19 -88 -22 -246 -18 -60 2 -108 -2 -127 -10 -40
-16 -58 -66 -71 -195 l-10 -107 73 -123 c39 -68 75 -124 78 -125 19 -1 69 219
69 306 l0 41 83 -3 c266 -10 446 128 504 389 25 109 25 729 0 955 -32 297 1
407 184 607 178 196 293 364 409 600 118 239 214 502 319 871 86 298 83 431
-17 824 -189 741 -454 1356 -830 1925 -135 204 -304 427 -433 570 -225 250
-405 423 -627 606 -473 388 -953 657 -1397 785 -133 39 -377 90 -470 99 -33 3
-82 8 -109 10 -78 8 -302 16 -307 11z"/>
<path d="M15903 14623 c-577 -631 -989 -1406 -1278 -2404 -197 -678 -307
-1312 -356 -2044 -15 -226 -15 -897 0 -1115 19 -281 34 -444 41 -458 6 -13
193 -102 213 -102 6 0 7 19 3 48 -3 26 -16 155 -28 287 -19 210 -22 306 -23
765 0 548 4 629 50 1045 107 957 384 1944 756 2686 238 476 482 826 858 1228
65 70 98 112 90 115 -52 17 -200 56 -213 56 -8 0 -59 -48 -113 -107z"/>
<path d="M32226 6173 c-32 -65 -91 -177 -132 -249 -41 -72 -74 -140 -74 -152
0 -22 1 -22 201 -22 l202 0 46 42 c63 59 271 276 359 376 114 129 128 122
-236 122 l-307 0 -59 -117z"/>
<path d="M17396 5560 l-50 -5 -37 -95 c-21 -52 -130 -329 -242 -615 -113 -286
-305 -774 -427 -1085 -122 -311 -226 -575 -231 -587 -8 -23 -8 -23 80 -23 l88
0 76 193 c41 105 117 297 167 425 l92 232 507 -2 506 -3 162 -420 162 -420 90
-3 c50 -1 91 -1 91 2 0 3 -27 74 -59 158 -67 172 -638 1665 -767 2003 -46 121
-88 226 -92 234 -9 16 -43 20 -116 11z m88 -360 c29 -85 126 -351 215 -590 89
-239 161 -441 161 -448 0 -10 -89 -12 -430 -12 -237 1 -436 3 -444 6 -10 4 35
129 169 477 100 260 201 530 225 600 23 71 44 127 46 125 1 -2 28 -73 58 -158z"/>
<path d="M23920 5565 c0 -6 -129 -536 -295 -1215 -188 -766 -285 -1170 -285
-1180 0 -6 120 -10 309 -10 286 0 310 1 315 18 2 9 23 115 46 235 l42 217 259
0 258 0 10 -37 c5 -21 26 -127 46 -235 l37 -198 310 0 c291 0 310 1 306 18 -2
9 -137 551 -298 1205 l-295 1187 -382 0 c-211 0 -383 -2 -383 -5z m426 -665
c8 -58 42 -252 75 -432 32 -181 59 -330 59 -333 0 -3 -76 -5 -170 -5 -93 0
-170 3 -170 6 0 3 29 162 64 352 36 191 72 394 81 452 8 58 18 121 22 140 6
34 7 33 14 -20 5 -30 16 -102 25 -160z"/>
<path d="M25820 4366 l0 -1206 288 2 287 3 2 450 3 450 33 3 32 3 164 -393
c90 -216 177 -421 192 -455 l28 -63 316 0 c173 0 315 2 315 4 0 2 -39 83 -86
181 -119 248 -318 662 -371 773 l-44 93 28 21 c58 44 159 157 196 219 76 130
107 284 96 484 -18 326 -174 515 -499 603 -94 26 -99 26 -537 30 l-443 3 0
-1205z m777 696 c84 -43 119 -129 111 -272 -11 -183 -87 -269 -240 -270 l-68
0 0 286 0 287 78 -5 c52 -3 91 -12 119 -26z"/>
<path d="M28000 4365 l0 -1205 583 2 582 3 0 245 0 245 -292 3 -293 2 0 254 0
253 28 1 c15 0 136 0 270 1 l242 1 0 240 0 240 -270 0 -270 0 2 216 3 216 286
-1 c228 -1 288 2 292 12 3 8 6 118 6 245 l2 232 -586 0 -585 0 0 -1205z"/>
<path d="M29690 5325 c0 -135 3 -245 8 -245 4 0 103 -1 220 -1 l212 -1 0 -959
0 -959 284 0 c251 0 285 2 290 16 3 9 6 440 6 958 l-1 941 213 2 213 2 3 245
2 246 -725 0 -725 0 0 -245z"/>
<path d="M31730 4365 l0 -1205 585 0 585 0 0 250 0 250 -295 0 -295 0 0 255 0
256 248 -1 c136 0 259 0 274 0 l26 0 -1 238 -2 237 -272 3 -273 2 0 215 0 215
279 0 c154 0 286 3 295 6 14 5 16 36 16 245 l0 239 -585 0 -585 0 0 -1205z"/>
<path d="M12100 5480 l0 -80 390 0 390 0 0 -1125 0 -1125 88 0 87 0 -3 1125
-2 1125 395 0 395 0 0 80 0 80 -870 0 -870 0 0 -80z"/>
<path d="M14530 4355 l0 -1205 663 0 662 0 0 75 0 75 -572 0 -573 0 -2 493
c-2 270 -2 503 0 517 l3 25 539 -3 540 -2 0 80 0 80 -539 0 c-350 0 -541 4
-543 10 -1 5 -2 210 0 455 l2 445 572 2 572 3 0 75 0 75 -662 3 -662 2 0
-1205z"/>
<path d="M19110 4355 l0 -1205 86 0 86 0 -4 1088 c-2 598 -8 1095 -12 1105 -5
9 -4 17 0 17 5 0 207 -497 449 -1105 l440 -1105 71 0 70 0 434 1083 c238 595
438 1092 444 1104 8 16 10 -285 8 -1083 l-3 -1104 85 0 86 0 0 1205 0 1206
-127 -3 -127 -3 -126 -315 c-552 -1373 -731 -1814 -736 -1819 -4 -3 -9 -1 -11
4 -2 6 -194 487 -427 1070 l-423 1060 -132 3 -131 3 0 -1206z"/>
</g>
</svg>
